<mxfile host="Electron" modified="2023-07-17T11:04:17.595Z" agent="Mozilla/5.0 (Windows NT 10.0; Win64; x64) AppleWebKit/537.36 (KHTML, like Gecko) draw.io/21.6.1 Chrome/112.0.5615.204 Electron/24.6.1 Safari/537.36" etag="Wuy-tWWiO6OO0rlPE_p4" version="21.6.1" type="device">
  <diagram name="ページ1" id="qJBkuaKg-PhyL28yuAMO">
    <mxGraphModel dx="1656" dy="818" grid="1" gridSize="10" guides="1" tooltips="1" connect="1" arrows="1" fold="1" page="1" pageScale="1" pageWidth="827" pageHeight="1169" math="0" shadow="0">
      <root>
        <mxCell id="0" />
        <mxCell id="1" parent="0" />
        <mxCell id="oShzkfGs7rrNEb3yiWbn-2" value="&lt;font style=&quot;font-size: 50px;&quot;&gt;クイズを作成しました&lt;/font&gt;" style="text;html=1;strokeColor=none;fillColor=none;align=center;verticalAlign=middle;whiteSpace=wrap;rounded=0;" parent="1" vertex="1">
          <mxGeometry x="120" y="160" width="530" height="30" as="geometry" />
        </mxCell>
        <mxCell id="oShzkfGs7rrNEb3yiWbn-8" value="&lt;font style=&quot;font-size: 24px;&quot;&gt;&lt;font style=&quot;font-size: 24px;&quot;&gt;https&lt;/font&gt;:ーーーーーーーーーーーーーー&lt;/font&gt;" style="text;html=1;strokeColor=none;fillColor=none;align=center;verticalAlign=middle;whiteSpace=wrap;rounded=0;" parent="1" vertex="1">
          <mxGeometry x="130" y="400" width="430" height="30" as="geometry" />
        </mxCell>
        <mxCell id="oShzkfGs7rrNEb3yiWbn-9" value="&lt;font style=&quot;font-size: 30px;&quot;&gt;当該リンク&lt;/font&gt;" style="text;html=1;strokeColor=none;fillColor=none;align=center;verticalAlign=middle;whiteSpace=wrap;rounded=0;" parent="1" vertex="1">
          <mxGeometry x="100" y="340" width="190" height="30" as="geometry" />
        </mxCell>
        <mxCell id="jjlR1vm2rSQHf1d44-nB-2" value="&lt;font style=&quot;font-size: 30px;&quot;&gt;クイズTOPへ&lt;/font&gt;" style="rounded=1;whiteSpace=wrap;html=1;" parent="1" vertex="1">
          <mxGeometry x="265" y="480" width="240" height="60" as="geometry" />
        </mxCell>
      </root>
    </mxGraphModel>
  </diagram>
</mxfile>
